<?xml version="1.0" encoding="UTF-8" standalone="no"?>
<!DOCTYPE svg PUBLIC "-//W3C//DTD SVG 1.1//EN"
 "http://www.w3.org/Graphics/SVG/1.1/DTD/svg11.dtd">
<!-- Generated by graphviz version 2.50.0 (0)
 -->
<!-- Title: snakemake_dag Pages: 1 -->
<svg width="87pt" height="188pt"
 viewBox="0.00 0.00 87.00 188.00" xmlns="http://www.w3.org/2000/svg" xmlns:xlink="http://www.w3.org/1999/xlink">
<g id="graph0" class="graph" transform="scale(1 1) rotate(0) translate(4 184)">
<title>snakemake_dag</title>
<polygon fill="white" stroke="transparent" points="-4,4 -4,-184 83,-184 83,4 -4,4"/>
<!-- 0 -->
<g id="node1" class="node">
<title>0</title>
<path fill="none" stroke="#d85656" stroke-width="2" d="M54.5,-36C54.5,-36 24.5,-36 24.5,-36 18.5,-36 12.5,-30 12.5,-24 12.5,-24 12.5,-12 12.5,-12 12.5,-6 18.5,0 24.5,0 24.5,0 54.5,0 54.5,0 60.5,0 66.5,-6 66.5,-12 66.5,-12 66.5,-24 66.5,-24 66.5,-30 60.5,-36 54.5,-36"/>
<text text-anchor="middle" x="39.5" y="-15.5" font-family="sans" font-size="10.00">report</text>
</g>
<!-- 1 -->
<g id="node2" class="node">
<title>1</title>
<path fill="none" stroke="#afd856" stroke-width="2" d="M54.5,-108C54.5,-108 24.5,-108 24.5,-108 18.5,-108 12.5,-102 12.5,-96 12.5,-96 12.5,-84 12.5,-84 12.5,-78 18.5,-72 24.5,-72 24.5,-72 54.5,-72 54.5,-72 60.5,-72 66.5,-78 66.5,-84 66.5,-84 66.5,-96 66.5,-96 66.5,-102 60.5,-108 54.5,-108"/>
<text text-anchor="middle" x="39.5" y="-87.5" font-family="sans" font-size="10.00">plotting</text>
</g>
<!-- 1&#45;&gt;0 -->
<g id="edge1" class="edge">
<title>1&#45;&gt;0</title>
<path fill="none" stroke="grey" stroke-width="2" d="M39.5,-71.7C39.5,-63.98 39.5,-54.71 39.5,-46.11"/>
<polygon fill="grey" stroke="grey" stroke-width="2" points="43,-46.1 39.5,-36.1 36,-46.1 43,-46.1"/>
</g>
<!-- 2 -->
<g id="node3" class="node">
<title>2</title>
<path fill="none" stroke="#56d8a9" stroke-width="2" d="M67,-180C67,-180 12,-180 12,-180 6,-180 0,-174 0,-168 0,-168 0,-156 0,-156 0,-150 6,-144 12,-144 12,-144 67,-144 67,-144 73,-144 79,-150 79,-156 79,-156 79,-168 79,-168 79,-174 73,-180 67,-180"/>
<text text-anchor="middle" x="39.5" y="-159.5" font-family="sans" font-size="10.00">preprocessing</text>
</g>
<!-- 2&#45;&gt;1 -->
<g id="edge2" class="edge">
<title>2&#45;&gt;1</title>
<path fill="none" stroke="grey" stroke-width="2" d="M39.5,-143.7C39.5,-135.98 39.5,-126.71 39.5,-118.11"/>
<polygon fill="grey" stroke="grey" stroke-width="2" points="43,-118.1 39.5,-108.1 36,-118.1 43,-118.1"/>
</g>
</g>
</svg>
